<svg width="400" height="356" viewBox="0 0 400 356" fill="none" xmlns="http://www.w3.org/2000/svg">
<path d="M199.993 341.308V341.336C227.607 341.336 255.227 341.336 282.853 341.33C315.524 341.33 348.195 341.33 380.867 341.264C382.46 341.258 384.519 342.243 385.465 339.715C387.705 333.745 385.05 329.728 378.72 329.728C338.104 329.733 297.487 329.75 256.87 329.75C177.983 329.75 99.1016 329.783 20.2199 329.628C15.2182 329.617 14.3441 331.41 14.2555 335.902C14.1504 340.683 15.9098 341.413 20.1978 341.402C80.1295 341.264 140.061 341.308 199.993 341.308ZM181.895 313.616C173.845 305.953 165.651 298.451 157.783 290.611C117.758 250.719 77.8112 210.733 37.8309 170.797C35.4906 168.451 33.1778 166.05 33.8418 162.382C34.3563 159.527 36.1158 157.513 38.9375 156.572C42.3513 155.438 44.8909 157.087 47.1482 159.333C55.7407 167.854 64.3056 176.396 72.8538 184.95C113.852 225.932 154.895 266.864 195.727 308C199.434 311.741 201.221 311.038 204.486 307.768C248.438 263.627 292.524 219.619 336.554 175.55C337.65 174.454 339.188 173.63 339.62 170.886C333.976 170.886 328.499 170.958 323.021 170.863C316.907 170.764 313.61 168.08 313.671 163.455C313.726 158.874 317.112 156.212 323.17 156.185C334.54 156.129 345.921 156.107 357.297 156.174C363.521 156.212 366.266 158.874 366.321 165.071C366.437 176.811 366.448 188.546 366.36 200.287C366.321 205.698 363.217 209.062 358.774 208.918C354.514 208.786 352.002 205.737 351.908 200.259C351.803 194.538 351.886 188.812 351.886 183.456C307.828 227.542 263.941 271.473 220.354 315.099C220.946 315.127 222.821 315.276 224.691 315.276C279.583 315.304 334.474 315.309 389.371 315.326C398.008 315.331 399.966 317.24 399.983 325.672C399.988 332.533 400.022 339.394 399.977 346.254C399.922 353.63 397.659 355.981 390.24 355.992C354.309 356.031 318.373 355.992 282.438 355.987C219.607 355.981 156.77 355.97 93.9395 355.97C65.9488 355.976 37.9637 356.031 9.97311 355.992C2.2382 355.987 0.069331 353.718 0.0250683 345.928C-0.0136615 338.89 -0.00259585 331.847 0.0250683 324.804C0.0582654 317.677 2.32673 315.337 9.32024 315.331C58.7949 315.315 108.275 315.32 157.75 315.32H180.788L181.895 313.616Z" fill="#284274"/>
<path d="M131.952 114.538C132.123 152.581 162.338 182.807 200.089 182.697C238.138 182.592 268.231 152.017 267.971 113.73C267.717 76.2836 237.269 46.3233 199.558 46.4007C162.156 46.4727 131.786 77.0858 131.952 114.538ZM192.791 17.9232V12.5066C192.791 3.31099 194.777 -0.102776 200.094 0.00234788C205.284 0.0908733 207.132 3.31652 207.143 12.2521C207.143 17.4861 207.315 22.7257 207.132 27.9598C207.021 31.0858 207.967 32.2367 211.282 32.6627C225.512 34.4941 238.459 39.7669 249.834 48.5751C252.33 50.5116 253.846 50.6057 256.064 48.1878C260.319 43.5236 264.889 39.1472 269.399 34.7209C273.487 30.7041 278.163 30.3444 281.272 33.6973C284.127 36.7681 283.529 41.2497 279.69 45.1448C275.38 49.5102 271.125 53.953 266.638 58.1303C264.27 60.3324 263.667 61.8816 265.913 64.7919C274.671 76.1397 280.176 88.9593 281.875 103.256C282.262 106.521 283.789 107.4 286.871 107.295C292.819 107.096 298.783 107.218 304.742 107.251C311.343 107.279 314.546 109.735 314.513 114.643C314.475 119.495 311.321 121.852 304.593 121.935C298.634 122.012 292.675 122.151 286.722 121.985C283.574 121.891 282.229 122.953 281.842 126.162C280.121 140.254 274.605 152.88 266.101 164.156C264.021 166.906 264.037 168.533 266.621 170.862C271.036 174.846 275.119 179.205 279.324 183.427C283.69 187.809 284.298 192.484 280.962 195.693C277.609 198.913 273.476 198.404 269.122 194.105C264.751 189.795 260.352 185.507 256.186 181.004C254.078 178.724 252.584 178.348 249.94 180.417C238.619 189.281 225.744 194.703 211.486 196.534C208.006 196.982 206.999 198.393 207.121 201.73C207.337 208.037 207.22 214.367 207.16 220.685C207.099 225.847 204.332 229.139 200.116 229.233C195.712 229.333 192.802 225.919 192.758 220.475C192.713 214.156 192.603 207.832 192.807 201.525C192.907 198.427 192.038 197.027 188.774 196.606C174.322 194.736 161.292 189.27 149.817 180.306C147.416 178.431 145.983 178.63 143.986 180.771C139.543 185.513 134.928 190.1 130.264 194.631C126.187 198.587 122.02 198.919 118.806 195.771C115.746 192.766 116.089 188.102 119.829 184.262C124.355 179.598 128.914 174.962 133.65 170.508C135.753 168.522 136.024 167.05 134.176 164.637C125.357 153.107 119.768 140.16 117.981 125.686C117.655 123.053 116.521 121.952 113.782 122.001C107.646 122.112 101.505 122.007 95.3687 121.946C88.6352 121.88 85.4815 119.556 85.4151 114.687C85.3487 109.763 88.5411 107.29 95.1307 107.251C101.09 107.218 107.054 107.101 113.002 107.295C116.061 107.395 117.627 106.587 118.02 103.289C119.741 88.7989 125.395 75.8631 134.298 64.3824C136.223 61.8871 135.736 60.4929 133.678 58.5564C129.091 54.2131 124.693 49.6651 120.255 45.1724C116.139 41.0117 115.63 36.4914 118.878 33.3654C122.125 30.2448 126.579 30.7926 130.757 34.9146C135.122 39.2302 139.615 43.4351 143.704 48.0052C146.077 50.6499 147.693 50.4065 150.326 48.3925C161.752 39.6783 174.682 34.3834 188.94 32.6184C192.033 32.2367 192.929 31.0803 192.78 28.2088C192.614 24.7895 192.741 21.348 192.741 17.9232H192.791Z" fill="#284274"/>
<path d="M149.375 111.568C150.637 85.7795 172.685 64.1351 197.937 63.8916C203.813 63.8363 206.917 66.1213 207.16 70.6693C207.404 75.2284 204.582 77.7901 198.722 78.3323C178.893 80.1747 165.785 93.1382 163.921 112.747C163.312 119.187 160.972 121.909 156.214 121.699C151.267 121.483 149.049 118.196 149.375 111.568Z" fill="#284274"/>
</svg>
