<svg width="400" height="333" viewBox="0 0 400 333" fill="none" xmlns="http://www.w3.org/2000/svg">
<path d="M237.326 49.5659C237.531 29.2284 220.39 11.9465 199.99 11.9465C180.088 11.9465 163.024 28.6977 162.681 48.5778C162.325 69.0526 179.064 86.3527 199.501 86.6318C219.946 86.9017 237.111 70.0818 237.326 49.5659ZM199.757 98.1546C164.902 100.016 138.068 115.725 121.411 147.608C115.301 159.295 121.091 169.995 134.11 171.879C142.446 173.091 150.845 173.965 159.126 175.502C164.651 176.527 168.014 175.09 170.308 169.78C173.516 162.36 177.41 155.247 180.856 147.923C184.644 139.873 189.566 133.468 199.514 133.295C209.893 133.112 214.75 139.726 219.307 147.882C224.48 157.154 225.215 171.55 235.201 174.756C244.5 177.744 256.304 173.265 266.943 171.669C278.784 169.899 284.455 159.108 278.989 148.454C262.606 116.498 236.105 100.24 199.757 98.1546ZM152.586 189.371C146.024 183.928 138.424 184.052 131.199 183.329C120.529 182.258 114.04 177.131 109.945 167.396C106.029 158.074 101.381 149.021 96.537 140.133C92.776 133.221 88.6951 133.235 84.9615 140.152C79.6696 149.954 74.7752 159.986 70.0409 170.068C66.5952 177.396 61.5272 181.801 53.1963 182.707C42.8044 183.841 32.4537 185.483 22.1257 187.148C18.5887 187.716 14.2793 187.665 12.7255 191.924C11.0804 196.434 14.9236 198.598 17.4782 201.118C24.6894 208.236 31.8596 215.395 39.3039 222.266C45.2859 227.782 47.6942 234.168 46.2318 242.251C44.2485 253.216 42.6536 264.249 40.7571 275.223C40.2224 278.333 39.6466 281.416 42.2652 283.731C45.5692 286.654 48.6264 284.23 51.5374 282.716C61.1113 277.725 70.74 272.807 80.1448 267.51C87.3378 263.462 94.1469 263.622 101.253 267.57C109.511 272.163 117.865 276.59 126.296 280.863C128.659 282.066 131.41 284.943 133.8 280.314C137.661 272.821 136.149 261.33 130.016 255.265C121.612 246.949 113.208 238.633 104.626 230.504C98.0131 224.242 94.1058 217.165 97.2362 207.92C100.362 198.689 107.724 195.574 116.8 194.522C128.768 193.136 140.664 191.119 152.586 189.371ZM247.279 186.453C247.274 187.427 247.265 188.397 247.256 189.367C259.796 191.183 272.326 193.118 284.893 194.76C293.243 195.853 299.823 199.325 302.666 207.623C305.462 215.793 303.168 222.856 296.985 228.821C288.476 237.027 280.484 245.828 271.49 253.453C264.228 259.611 263.104 266.385 264.941 275.076C266.385 281.915 268.186 284.692 275.265 280.255C282.682 275.602 290.766 272.039 298.416 267.739C305.874 263.549 312.984 263.595 320.465 267.84C329.861 273.164 339.499 278.045 349.073 283.054C351.737 284.449 354.566 286.242 357.55 283.932C360.415 281.714 359.807 278.589 359.282 275.534C357.554 265.553 356.133 255.507 354.109 245.586C352.016 235.344 354.429 227.252 362.654 220.349C370.135 214.073 376.867 206.887 383.763 199.925C390.133 193.498 389.036 189.385 380.171 187.711C369.898 185.767 359.533 184.056 349.132 183.137C338.749 182.217 332.708 176.957 328.769 167.63C324.962 158.618 320.209 150.009 315.722 141.3C314.387 138.715 313.515 135.376 309.644 135.289C305.38 135.198 304.123 138.555 302.625 141.574C297.822 151.258 292.895 160.887 288.307 170.672C285.003 177.712 279.867 181.691 272.084 182.666C263.79 183.699 255.546 185.172 247.279 186.453ZM140.65 310.852C140.709 319.937 145.316 322.796 152.861 319.082C164.354 313.414 175.792 307.582 186.947 301.269C195.731 296.297 203.888 296.077 212.731 301.104C223.575 307.275 234.78 312.815 245.867 318.551C249.143 320.243 252.493 322.27 256.254 319.571C259.887 316.964 259.649 313.268 259.014 309.498C256.844 296.507 254.851 283.484 252.379 270.552C250.775 262.149 252.831 255.315 258.959 249.414C268.446 240.289 277.737 230.957 287.197 221.799C289.975 219.109 292.521 216.392 291.415 212.188C290.126 207.298 285.954 206.873 281.836 206.297C269.479 204.567 257.177 202.312 244.775 201.059C234.904 200.062 228.748 195.121 224.69 186.43C219.553 175.42 214.106 164.556 208.7 153.669C206.776 149.794 205.254 145.151 199.697 145.38C194.78 145.577 193.226 149.726 191.444 153.33C185.905 164.524 180.38 175.722 175.002 186.997C171.058 195.263 165.112 200.034 155.616 200.999C142.875 202.303 130.231 204.581 117.54 206.397C113.779 206.932 109.968 207.454 108.675 211.799C107.441 215.93 109.634 218.771 112.509 221.511C120.817 229.424 128.64 237.882 137.264 245.43C146.6 253.614 149.922 262.89 147.007 275.186C144.128 287.322 142.574 299.769 140.65 310.852ZM170.276 90.1815C145.832 58.5911 144.959 32.8604 167.539 12.5366C186.609 -4.63091 214.91 -4.10944 233.711 13.7488C255.08 34.0406 253.745 60.6998 229.493 90.2684C235.585 93.1822 241.649 95.8628 247.512 98.9322C263.47 107.276 275.9 119.498 285.186 134.804C288.508 140.284 290.368 140.184 292.859 134.516C296.172 126.982 301.925 122.792 310.325 123.199C318.349 123.583 323.029 128.652 326.31 135.445C330.716 144.575 335.409 153.564 339.513 162.822C341.985 168.403 345.787 171.106 351.755 171.815C362.481 173.078 373.156 174.761 383.849 176.271C391.093 177.295 396.471 180.758 398.957 187.949C401.457 195.172 399.314 201.242 394.109 206.393C386.185 214.228 378.302 222.119 370.135 229.69C366.009 233.514 364.491 237.466 365.689 243.134C367.85 253.38 369.144 263.796 371.127 274.079C372.594 281.636 371.662 288.337 365.291 293.246C358.583 298.406 351.435 297.573 344.347 293.872C335.071 289.037 325.634 284.463 316.613 279.184C311.248 276.046 306.82 276.289 301.587 279.344C293.142 284.285 284.473 288.891 275.644 293.081C270.549 295.501 268.414 298.277 270.023 304.101C271.453 309.274 272.084 314.768 270.425 320.124C266.934 331.419 254.956 336.212 243.134 330.499C231.293 324.777 219.658 318.583 208.156 312.188C202.563 309.077 197.687 308.89 192.038 312.087C181.463 318.066 170.56 323.455 159.853 329.205C152.248 333.285 144.47 334.9 136.871 329.836C128.75 324.42 127.032 316.017 129.541 307.353C132.113 298.497 127.493 295.917 121.146 291.146C100.248 275.406 80.6567 275.186 60.2979 291.425C56.7288 294.27 52.1041 296.146 47.2646 296.69C35.4012 298.021 26.7642 288.895 28.5373 276.353C30.0499 265.653 31.8184 254.958 34.1582 244.419C35.6754 237.58 33.7012 232.956 28.583 228.459C21.23 222.014 14.526 214.828 7.46102 208.049C1.73497 202.55 -1.80211 196.407 0.95352 188.187C3.67259 180.076 9.85563 176.943 17.8803 176.005C27.2668 174.907 36.562 172.904 45.9668 172.181C54.1194 171.55 58.6893 167.607 61.7465 160.32C65.2791 151.926 69.6433 143.893 73.5825 135.669C77.0099 128.51 81.9088 123.277 90.4316 123.162C98.4198 123.057 103.625 127.321 107.112 134.26C108.661 137.338 110.1 142.667 114.126 135.856C126.867 114.293 145.572 100.071 168.796 91.412C169.372 91.2015 169.801 90.5932 170.276 90.1815Z" fill="#284274"/>
</svg>
