<svg width="102" height="71" viewBox="0 0 102 71" fill="none" xmlns="http://www.w3.org/2000/svg">
<path d="M8.36309 23.8334C7.93492 24.2385 7.44443 24.679 6.99323 25.1478C6.90516 25.2408 8.43084 26.5458 8.52839 26.4657C9.04328 26.0476 9.53512 25.6059 10.0066 25.1513C10.0839 25.0783 8.60427 23.8157 8.36309 23.8334ZM27.201 13.1913C26.6658 12.7932 26.132 12.3916 25.5873 12.0017C25.5087 11.9452 23.9871 13.1394 23.9573 13.2713C23.9275 13.3915 25.2973 14.6328 25.468 14.6422C25.6103 14.6517 26.9734 13.5116 27.201 13.1913ZM93.5085 48.6533C93.6602 48.6521 95.1155 47.3672 95.0396 47.2989C94.5464 46.8584 94.0302 46.1094 93.518 46.107C93.0099 46.1047 92.4896 46.8549 91.995 47.293C91.9178 47.3625 93.3581 48.6545 93.5085 48.6533ZM74.9388 59.1494C74.9375 59.2766 76.4469 60.5321 76.5309 60.4662C77.0553 60.0492 77.5566 59.6111 78.0647 59.18C77.5512 58.7243 77.0431 58.2638 76.5187 57.8197C76.4577 57.7679 74.9388 59.047 74.9388 59.1494ZM17.0091 13.8402C16.9833 14.3195 16.9671 14.495 16.9671 14.6717C16.9698 32.1648 16.9792 49.6591 16.9603 67.1522C16.9589 67.9025 17.2679 68.0285 18.0307 68.0249C23.3191 68.0002 28.6088 67.9932 33.8986 68.0214C34.6899 68.025 35.2319 67.8047 35.7779 67.3277C43.6326 60.4756 51.5062 53.6411 59.3758 46.8019C59.5953 46.6123 59.8067 46.4121 60.0492 46.2495C60.8297 45.7301 61.7605 45.7725 62.3811 46.3355C62.9854 46.8843 63.0233 47.6381 62.457 48.2953C62.2727 48.5073 62.0464 48.6945 61.8283 48.8853C54.8082 54.9849 47.7855 61.0833 40.7723 67.1899C40.5311 67.3996 40.1165 67.5374 40.1707 68.0049C41.5188 68.0049 42.8535 67.9743 44.184 68.0179C44.8927 68.0403 45.3927 67.8506 45.8967 67.409C50.2 63.6343 54.5305 59.8832 58.8569 56.1285C59.2932 55.7504 59.7213 55.3535 60.2159 55.0367C60.957 54.5621 61.7307 54.654 62.3648 55.2028C63.0098 55.7599 63.0396 56.4265 62.5207 57.0742C62.3079 57.3404 62.0234 57.5665 61.7565 57.7985C58.1414 60.9467 54.521 64.0913 50.9114 67.2429C50.6919 67.4349 50.3193 67.5597 50.3626 68.0132H51.8883C62.1237 68.0108 72.3576 68.0073 82.593 68.0061C84.9926 68.0061 85.0021 68.0132 85.0156 65.9274C85.0278 63.9111 85.0183 61.8959 85.0183 59.6064C84.3368 60.5215 83.5103 60.6134 82.6458 60.7041C80.5551 60.9231 78.8587 62.2481 78.3763 64.0006C78.2408 64.4905 78.2436 65.0134 78.0837 65.4963C77.8574 66.1759 77.2544 66.5174 76.455 66.5057C75.6935 66.4962 75.1516 66.15 74.9266 65.5034C74.8386 65.2478 74.8087 64.9769 74.7735 64.7108C74.4768 62.4448 72.6937 60.909 70.0691 60.6617C69.7981 60.6357 69.5231 60.6063 69.2602 60.5427C68.4594 60.3519 68.0407 59.8478 68.0435 59.16C68.0462 58.4816 68.4472 57.9587 69.2385 57.7538C69.5624 57.669 69.9106 57.649 70.2507 57.6136C72.6313 57.3698 74.4212 55.8399 74.741 53.7789C74.7966 53.4244 74.8264 53.0569 74.9592 52.726C75.2152 52.0947 75.7992 51.7567 76.5444 51.7755C77.3303 51.7944 77.9048 52.163 78.1067 52.8626C78.1894 53.1523 78.2449 53.4479 78.2856 53.7436C78.5674 55.7775 80.3072 57.3722 82.6119 57.5948C83.471 57.6772 84.2772 57.7667 85.0251 58.6029C85.0251 55.8847 85.0238 53.4468 85.0251 51.0065C85.0251 39.3055 85.0265 27.6022 85.0265 15.9001C85.0265 11.8698 85.0075 7.83956 85.0319 3.80929C85.0359 3.20864 84.8761 3.00018 84.1322 2.96249C82.8802 2.90243 81.9765 3.22984 81.0673 4.02953C73.4348 10.7356 65.7468 17.3935 58.0723 24.0631C57.7322 24.3575 57.3908 24.6614 56.9992 24.8957C56.2797 25.3244 55.5318 25.2549 54.9288 24.7391C54.2974 24.1997 54.1674 23.5237 54.727 22.8771C55.1172 22.4272 55.5887 22.0267 56.0494 21.6263C62.8486 15.7152 69.6531 9.80875 76.4509 3.89645C76.7246 3.65854 77.0783 3.4595 77.2273 2.99547C75.8304 2.99547 74.5337 3.03551 73.2411 2.98016C72.4118 2.94483 71.8428 3.19804 71.2682 3.7033C67.6736 6.87145 64.0463 10.0078 60.4273 13.1536C59.4314 14.0192 58.449 14.8955 57.426 15.7364C56.6022 16.4148 55.6226 16.4477 54.9343 15.8824C54.1972 15.2759 54.227 14.4467 55.0237 13.6553C55.2025 13.4763 55.4071 13.3137 55.6009 13.1453C59.22 10.0007 62.8404 6.85731 66.4541 3.70683C66.656 3.53135 66.9825 3.41121 66.9514 2.9884H65.7468H36.4838C30.335 2.9884 24.1876 3.00254 18.0402 2.97074C17.1703 2.96603 16.944 3.1898 16.9589 3.92942C17.0063 6.40506 16.9698 8.88422 16.9657 11.3622C16.9643 11.7685 16.9657 12.1749 16.9657 12.6707C18.0158 11.9228 18.0686 11.9028 19.2813 11.7768C21.4371 11.5495 23.1307 10.2657 23.6253 8.45552C23.75 7.99384 23.7689 7.50979 23.8963 7.04693C24.0887 6.35088 24.6551 5.98813 25.4572 5.97282C26.2648 5.95751 26.8393 6.3179 27.075 6.99746C27.1915 7.33548 27.201 7.70294 27.2715 8.05626C27.6482 9.9548 28.9503 11.1443 31.0396 11.692C31.5599 11.8298 32.1222 11.8357 32.6588 11.9322C33.5368 12.0853 33.9352 12.6342 33.9446 13.3491C33.9555 14.0416 33.5178 14.5374 32.7198 14.7212C32.3892 14.7965 32.0436 14.8142 31.7036 14.8507C29.3486 15.1098 27.5398 16.6809 27.2417 18.7255C27.1929 19.0506 27.1699 19.385 27.0615 19.6948C26.8352 20.3437 26.2661 20.6829 25.5155 20.6782C24.7323 20.6747 24.1307 20.3449 23.9004 19.6489C23.8042 19.3638 23.754 19.0659 23.7147 18.7703C23.4275 16.6774 21.7311 15.1475 19.322 14.8743C18.4954 14.78 17.6906 14.6964 17.0091 13.8402ZM50.9602 70.9976C39.3523 70.9976 27.7444 71.0011 16.1351 70.9941C14.081 70.9929 13.5932 70.5477 13.5932 68.7552C13.5919 55.171 13.5932 41.588 13.5851 28.0038C13.5851 27.6917 13.7816 27.2501 13.4482 27.0911C13.0607 26.905 12.6854 27.2654 12.3724 27.4691C11.2031 28.2323 10.405 29.2063 10.2546 30.5136C10.2316 30.7221 10.1896 30.927 10.1476 31.1331C9.97413 32.007 9.31698 32.5476 8.45522 32.5311C7.60838 32.5122 6.88212 31.921 6.80489 31.0742C6.73172 30.2863 6.56777 29.5349 6.08405 28.8624C5.13558 27.541 3.79418 26.7601 1.97041 26.647C0.757723 26.5693 0.016562 26.0028 0.000302547 25.1772C-0.0159569 24.3775 0.623582 23.8464 1.81323 23.6721C5.03396 23.2021 6.3835 22.0102 6.78592 19.2814C6.9187 18.3804 7.50405 17.8493 8.40374 17.8163C9.38201 17.7786 10.0283 18.245 10.1449 19.2249C10.3264 20.763 10.9673 22.0468 12.4998 22.9183C12.783 23.0785 13.0878 23.3635 13.413 23.2339C13.7775 23.0891 13.5851 22.7028 13.5851 22.4283C13.5946 15.7116 13.5919 8.99375 13.5919 2.27586C13.5932 0.433862 14.0634 0.00751634 16.2029 0.00751634C33.0653 0.00162758 49.9291 0.00280534 66.7928 0.00280534C73.1476 0.00280534 79.4996 -0.00543892 85.853 0.00633859C87.922 0.00869409 88.403 0.451528 88.403 2.24053C88.4044 16.1533 88.4044 30.0637 88.4044 43.9765C88.4044 44.2744 88.4247 44.5736 88.4044 44.8716C88.3624 45.5005 88.6794 45.5087 89.197 45.2473C90.6563 44.5088 91.5032 43.4135 91.7525 41.9625C92.0113 40.4515 92.4679 39.9544 93.5546 39.9804C94.5857 40.0039 95.022 40.5174 95.2388 41.9602C95.5314 43.8987 97.3186 45.4805 99.5475 45.7702C99.6491 45.7843 99.7521 45.7867 99.8537 45.7973C101.29 45.9586 101.997 46.4639 102 47.3272C102.003 48.2117 101.237 48.7334 99.7562 48.8488C97.4081 49.0349 95.4827 50.7344 95.2388 52.8673C95.1764 53.4138 95.1087 53.9426 94.6101 54.3336C93.6169 55.1168 92.117 54.6433 91.892 53.4326C91.6698 52.236 91.4192 51.0759 90.3609 50.1903C90.2376 50.0866 90.113 49.9806 89.9748 49.8935C89.5398 49.6202 89.0873 49.1079 88.5792 49.3034C88.1767 49.4577 88.4233 50.0607 88.4233 50.4576C88.4071 56.5784 88.4084 62.698 88.403 68.8176C88.4017 70.5312 87.8936 70.9929 85.8896 70.9952C74.2464 71.0035 62.6033 70.9988 50.9602 70.9976Z" fill="#284274"/>
</svg>
