<svg width="400" height="423" viewBox="0 0 400 423" fill="none" xmlns="http://www.w3.org/2000/svg">
<path d="M326.371 406.292C337.432 385.096 337.432 385.096 361.867 386.007C360.471 379.39 356.181 374.395 353.102 368.881C343.775 352.185 334.198 335.63 324.591 319.104C322.243 315.07 320.67 311.059 325.463 308.158C330.218 305.279 333.172 308.328 335.512 312.428C348.863 335.8 362.258 359.12 375.69 382.432C378.112 386.651 379.153 390.98 376.192 395.198C373.098 399.617 368.594 400.993 363.336 399.95C362.701 399.824 362.081 399.646 361.438 399.535C345.016 396.634 345.016 396.634 338.902 411.739C338.784 412.035 338.761 412.376 338.636 412.672C336.613 417.593 334.361 422.307 328.084 422.722C321.926 423.122 318.839 419.162 316.136 414.426C305.363 395.568 294.508 376.756 283.646 357.943C282.058 355.182 280.331 352.503 277.776 348.344C267.172 366.683 257.225 383.912 247.264 401.134C244.178 406.455 241.349 411.969 237.908 417.053C232.356 425.268 221.722 425.075 219.116 415.832C214.567 399.728 206.075 395.657 190.281 399.794C180.844 402.274 174.833 392.112 179.765 383.35C193.138 359.623 206.792 336.066 220.378 312.458C222.608 308.58 225.466 305.057 230.413 308.232C235.184 311.288 233.493 315.433 231.248 319.318C220.408 338.138 209.509 356.922 198.758 375.786C197.037 378.783 194.393 381.455 194.357 386.643C211.045 382.41 225.444 383.342 227.216 404.938C231.905 403.983 232.577 400.904 233.914 398.595C245.913 377.829 257.794 356.988 269.83 336.229C275.811 325.912 279.954 325.927 286.038 336.384C299.382 359.319 312.577 382.358 326.371 406.292Z" fill="#03417C"/>
<path d="M200.506 0.00439409C258.356 -0.0014647 316.211 -0.0014647 374.061 0.00439409C391.825 0.00439409 399.998 8.08367 399.998 25.7596C400.004 110.361 399.998 194.95 399.969 279.551C399.963 299.711 392.862 306.689 372.526 306.712C366.357 306.718 360.182 306.736 354.012 306.706C350.415 306.689 346.115 307.181 346.015 301.937C345.91 296.242 350.526 296.641 354.364 296.571C360.275 296.471 366.187 296.541 372.104 296.541C387.161 296.529 390.39 293.237 390.395 277.834C390.401 232.575 390.395 187.328 390.395 142.068C390.395 104.016 390.407 65.9627 390.395 27.904C390.39 14.0831 386.816 10.4272 373.311 10.4213C257.864 10.4155 142.41 10.4155 26.9629 10.4213C13.1713 10.4213 9.59746 13.9425 9.59746 27.5934C9.58574 111.163 9.5916 194.727 9.60918 278.291C9.60918 293.155 12.9721 296.535 27.5605 296.541C86.1894 296.541 144.812 296.535 203.441 296.547C205.756 296.547 208.099 296.406 210.367 296.764C213.108 297.197 215.259 298.762 215.048 301.873C214.854 304.808 213.026 306.501 210.003 306.653C208.205 306.736 206.406 306.718 204.601 306.718C144.695 306.718 84.7833 306.73 24.8713 306.718C8.24408 306.712 0.0534903 298.832 0.0417728 282.363C-0.0168152 196.485 -0.0109564 110.607 0.0417728 24.7285C0.0534903 7.96649 8.36711 0.0102529 25.3986 0.0102529C83.7639 0.00439409 142.135 0.0102529 200.506 0.00439409Z" fill="#284274"/>
<path d="M200.375 47.7601C232.258 47.7601 264.147 47.8245 296.031 47.6957C300.917 47.6781 304.462 48.3225 305.434 54.1286C309.266 77.0189 322.63 90.0078 345.924 92.0115C353.746 92.6794 355.328 95.6323 355.058 102.469C354.648 112.74 354.918 123.04 354.965 133.322C354.976 136.673 354.508 139.767 350.371 139.966C345.766 140.188 344.964 136.855 344.934 133.24C344.87 125.014 344.688 116.771 344.969 108.557C345.128 103.864 343.704 102.13 338.771 101.104C317.275 96.6458 301.802 84.8404 296.189 62.7234C294.883 57.6029 291.707 58.136 288.145 58.136C254.973 58.1477 221.8 58.1419 188.634 58.1419C163.429 58.1419 138.236 58.2825 113.038 58.0423C107.472 57.9895 104.917 58.9621 103.072 65.2252C97.0489 85.643 82.0153 96.9095 61.656 101.011C56.4944 102.048 54.9769 103.77 55.0062 108.844C55.2113 137.903 55.1586 166.957 55.0472 196.017C55.0355 200.095 55.7034 202.631 60.449 203.557C83.767 208.115 99.5096 221.081 104.437 245.084C105.386 249.713 108.233 249.121 111.21 249.127C132.301 249.156 153.381 249.133 174.467 249.133C176.271 249.133 178.07 249.127 179.869 249.185C183.29 249.291 186.196 250.339 185.956 254.405C185.751 257.85 183.302 259.093 180.021 258.999C177.707 258.928 175.393 258.993 173.078 258.993C149.678 258.999 126.278 258.905 102.878 259.057C97.5528 259.093 94.9749 257.47 94.5413 251.71C92.8716 229.763 76.5842 213.804 54.3208 212.931C46.6282 212.632 44.8412 209.779 44.8998 202.702C45.181 169.014 45.1283 135.331 44.935 101.643C44.894 95.4565 46.218 92.6326 53.3189 92.0877C77.0001 90.2656 90.8503 77.2064 94.5531 54.07C95.5139 48.0941 99.1698 47.6957 103.945 47.7074C136.086 47.8011 168.233 47.7542 200.375 47.7601Z" fill="#284274"/>
<path d="M279.398 157.315C278.255 157.678 275.976 157.854 274.412 158.996C267.464 164.076 259.853 165.804 251.276 165.675C245.587 165.581 241.263 169.225 238.855 174.651C236.459 180.035 232.551 183.972 227.219 186.468C220.376 189.661 217.201 195.057 217.681 202.521C218.074 208.679 216.586 214.198 212.971 219.201C208.723 225.077 208.583 231.217 212.69 237.117C216.381 242.414 218.039 248.056 217.687 254.494C217.295 261.578 220.218 266.909 226.815 269.991C232.123 272.475 236.183 276.254 238.621 281.632C241.907 288.874 247.708 291.791 255.377 291.352C261.265 291.006 266.532 292.465 271.313 295.951C277.488 300.457 283.751 300.269 289.821 295.77C294.379 292.395 299.417 290.989 305.007 291.352C313.01 291.868 319.021 288.862 322.442 281.398C324.798 276.248 328.735 272.674 333.68 270.202C336.257 268.907 339.497 267.659 340.13 265.023C343.194 252.303 350.043 239.584 349.938 227.415C349.85 216.641 345.702 203.546 340.388 193.809C334.986 183.925 324.845 174.504 315.242 168.47C305.692 162.476 291.813 163.466 281.038 157.326C280.845 157.215 280.529 157.315 279.398 157.315ZM307.626 301.277C302.23 300.673 298.392 302.343 294.596 304.827C285.304 310.903 275.724 310.897 266.421 304.915C262.144 302.167 257.884 301.025 252.729 301.124C243.021 301.318 235.31 296.982 230.659 288.282C228.256 283.8 225.157 280.595 220.611 278.176C211.653 273.418 207.417 265.333 207.546 255.385C207.61 250.522 206.69 246.497 203.995 242.408C197.873 233.139 197.926 223.519 204.048 214.239C206.561 210.419 207.733 206.634 207.569 202.005C207.223 191.676 211.512 183.462 220.687 178.471C224.935 176.162 228.075 173.344 230.342 169.05C235.199 159.816 243.032 155.118 253.549 155.586C258.423 155.803 262.484 154.373 266.538 151.778C275.596 145.972 285.04 145.919 294.098 151.614C298.421 154.332 302.651 155.78 307.79 155.604C317.96 155.252 325.665 159.84 330.393 168.798C332.654 173.098 335.701 175.987 339.954 178.307C349.065 183.281 353.599 191.325 353.353 201.718C353.242 206.54 354.396 210.577 357.08 214.684C362.95 223.689 362.962 233.203 356.98 242.156C354.226 246.28 353.283 250.387 353.365 255.162C353.547 265.579 348.907 273.518 339.808 278.486C335.806 280.666 332.812 283.273 330.715 287.403C325.799 297.058 317.568 301.406 307.626 301.277Z" fill="#284274"/>
<path d="M280.373 262.534C299.326 262.569 314.817 247.395 314.992 228.611C315.162 210.068 299.496 194.132 280.929 193.974C261.724 193.81 245.882 209.424 245.976 228.43C246.064 247.277 261.42 262.499 280.373 262.534ZM236.227 228.617C236.156 203.659 255.578 183.774 280.144 183.633C304.429 183.505 324.724 203.583 325.052 228.072C325.374 252.386 305.243 272.664 280.695 272.757C255.713 272.851 236.297 253.576 236.227 228.617Z" fill="#284274"/>
<path d="M299.63 217.514C299.272 218.323 298.874 219.834 298.042 221.047C293.378 227.773 288.615 234.429 283.875 241.096C280.471 245.883 276.962 245.801 273.412 241.266C269.955 236.825 266.533 232.355 263.059 227.925C260.932 225.213 259.913 222.119 262.913 219.799C265.684 217.655 268.432 218.727 270.927 221.434C279.054 230.24 279.141 230.14 286.19 220.332C287.83 218.053 289.418 215.704 291.304 213.642C292.751 212.06 294.673 211.474 296.87 212.599C298.657 213.519 299.571 214.866 299.63 217.514Z" fill="#284274"/>
<path d="M199.774 137.096C176.637 137.096 153.501 137.12 130.359 137.073C126.644 137.067 121.699 138.116 121.664 132.321C121.635 126.304 126.703 126.867 130.763 126.861C177.041 126.826 223.32 126.832 269.599 126.855C273.149 126.861 277.449 126.375 278.199 131.179C279.084 136.856 274.901 137.12 270.735 137.114C247.083 137.079 223.426 137.096 199.774 137.096Z" fill="#284274"/>
<path d="M200.051 89.4158C223.445 89.4158 246.834 89.41 270.234 89.4217C273.808 89.4275 278.167 88.8007 278.325 94.0384C278.495 99.493 274.083 99.7214 270.134 99.7214C223.352 99.7507 176.563 99.739 129.781 99.7039C125.75 99.698 121.45 99.2879 121.672 93.9037C121.895 88.619 126.371 89.4393 129.869 89.4334C153.269 89.3983 176.657 89.4158 200.051 89.4158Z" fill="#284274"/>
</svg>
