<svg width="381" height="389" viewBox="0 0 381 389" fill="none" xmlns="http://www.w3.org/2000/svg">
<path d="M94.9528 280.748H94.9097V274.333C94.9259 246.247 94.9474 218.16 94.942 190.074C94.942 188.07 95.6799 185.797 92.0445 185.814C67.0332 185.927 42.0273 185.9 17.0161 185.835C14.6086 185.83 14.0324 186.697 14.3555 188.932C15.1741 194.479 15.8097 200.059 16.5637 205.617C20.1452 231.958 23.759 258.305 27.3297 284.658C31.2882 313.789 35.2413 342.92 39.0921 372.063C39.4368 374.691 40.277 375.617 43.0506 375.596C59.1001 375.466 75.1441 375.472 91.1989 375.617C94.1719 375.644 95.0336 374.847 95.0228 371.826C94.9097 341.466 94.9528 311.107 94.9528 280.748ZM108.105 281.211C108.105 300.465 108.175 319.724 108.035 338.983C108.013 342.129 108.999 343.109 112.069 343.249C123.406 343.771 134.382 346.319 144.539 351.328C170.342 364.054 197.766 367.264 226.047 366.257C239.295 365.777 252.34 363.219 265.556 362.546C279.85 361.808 294.16 362.32 308.47 362.142C315.277 362.061 322.117 362.708 328.898 361.7C342.847 359.638 349.832 343.744 341.533 332.704C337.224 326.973 331.133 324.566 324.018 324.571C308.373 324.582 292.727 324.566 277.076 324.561C275.741 324.561 274.394 324.625 273.069 324.496C269.385 324.124 267.07 321.738 266.94 318.297C266.806 314.866 268.955 312.157 272.493 311.532C273.926 311.279 275.423 311.339 276.888 311.339C295.479 311.317 314.071 311.409 332.657 311.269C343.17 311.182 351.852 304.229 353.026 295.418C354.491 284.313 346.17 274.549 334.224 274.161C321.67 273.757 309.089 274.021 296.519 273.983C288.095 273.956 279.667 274.059 271.249 273.8C267.102 273.676 264.662 270.838 264.721 267.138C264.781 263.46 267.366 261.009 271.534 260.702C272.466 260.637 273.409 260.702 274.34 260.702C299.745 260.707 325.155 260.707 350.564 260.718C352.999 260.718 355.331 260.4 357.555 259.275C365.251 255.381 369.037 245.811 366.625 236.122C364.6 227.973 357.97 222.975 349.266 222.986C328.268 223.007 307.274 223.013 286.275 223.024C281.196 223.024 276.112 223.11 271.033 222.97C267.296 222.867 264.716 220.131 264.694 216.609C264.668 213.028 267.15 210.373 270.893 210.049C271.954 209.958 273.032 210.028 274.103 210.028C297.1 210.022 320.108 210.001 343.105 210.022C348.442 210.028 353.096 208.374 356.871 204.561C362.44 198.939 364.12 190.946 360.894 183.821C357.48 176.276 351.41 172.441 343.089 172.446C316.214 172.457 289.334 172.484 262.459 172.576C255.059 172.597 247.751 172.15 240.75 169.522C228.815 165.036 224.113 154.544 228.659 142.679C230.544 137.751 233.296 133.475 237.017 129.635C251.71 114.501 263.714 97.6656 265.955 75.9719C268.287 53.3896 261.005 34.0818 243.889 18.8456C240.47 15.7972 236.484 13.5406 231.707 13.3144C226.811 13.0828 226.257 13.6699 226.3 18.6032C226.564 46.652 218.038 71.7226 200.432 93.5616C190.533 105.836 179.956 117.566 170.59 130.287C159.775 144.958 150.14 160.027 144.992 177.977C139.902 195.718 128.118 209.085 111.929 218.166C108.891 219.868 108.002 221.726 108.029 225.043C108.186 243.769 108.105 262.485 108.105 281.211ZM54.4468 172.742C69.4299 172.748 84.4076 172.748 99.3799 172.742C105.757 172.742 108.121 175.058 108.142 181.403C108.164 188.086 108.132 194.775 108.169 201.459C108.175 202.353 108.105 203.667 108.622 204.06C109.699 204.863 110.523 203.565 111.32 202.989C122.091 195.196 129.782 184.925 133.234 172.199C137.532 156.386 145.514 142.717 154.928 129.614C164.461 116.359 174.511 103.514 185.357 91.3212C199.974 74.8894 209.324 56.0232 212.318 34.1895C213.245 27.4412 213.907 20.5959 212.808 13.7991C211.995 8.78504 214.144 5.61824 218.377 3.39394C230.064 -2.76732 240.798 -0.0206078 250.568 7.46016C263.994 17.7361 272.418 31.5828 276.683 47.7992C283.114 72.2557 278.245 94.9081 264.759 115.972C259.481 124.228 253.471 131.892 246.442 138.737C243.685 141.414 241.676 144.484 240.62 148.173C239.295 152.799 240.41 155.293 244.88 157.075C250.579 159.348 256.594 159.515 262.632 159.499C289.512 159.44 316.392 159.235 343.272 159.402C362.661 159.521 376.443 174.412 375.457 193.661C375.102 200.608 372.296 206.629 367.783 211.789C366.14 213.679 366.161 214.514 368.165 216.092C387.322 231.21 383.299 262.883 361.223 271.829C359.408 272.561 358.998 273.213 360.323 274.899C371.181 288.778 367.271 309.292 350.753 319.164C348.879 320.284 348.679 321.033 350.15 322.729C359.015 332.962 360.743 344.563 355.029 356.654C349.089 369.235 338.199 375.009 324.6 375.256C307.085 375.569 289.56 375.429 272.041 375.353C262.093 375.316 252.356 377.163 242.521 378.197C215.27 381.051 188.325 379.936 161.87 372.208C155.704 370.409 149.656 368.271 143.92 365.363C133.778 360.219 123.023 357.333 111.729 356.202C108.875 355.916 107.981 356.794 108.051 359.643C108.223 366.596 108.132 373.549 108.121 380.507C108.11 386.157 105.805 388.651 100.128 388.672C78.5964 388.758 57.0643 388.764 35.5322 388.731C30.1195 388.726 27.976 386.819 27.2651 381.525C22.391 345.506 17.5869 309.486 12.7021 273.472C8.56586 243.021 4.37577 212.57 0.16414 182.124C-0.697575 175.861 1.80678 172.786 8.31273 172.764C23.6943 172.705 39.0706 172.742 54.4468 172.742Z" fill="#284274"/>
</svg>
