<svg width="309" height="394" viewBox="0 0 309 394" fill="none" xmlns="http://www.w3.org/2000/svg">
<path d="M110.92 273.693C132.219 284.652 153.996 289.991 178.832 288.182C164.951 278.266 154.705 266.875 145.754 254.252C144.602 252.622 143.618 251.165 141.147 252.616C130.704 258.755 120.539 265.268 110.92 273.693ZM163.465 31.3542C177.743 41.4089 188.087 53.174 197.222 66.0621C198.455 67.8012 199.48 68.1813 201.409 67.0468C210.867 61.4897 220.001 55.4891 228.618 48.6765C231.359 46.4997 231.014 45.4688 228.03 44.058C208.119 34.6194 187.31 29.7878 163.465 31.3542ZM55.4379 103.834C68.3855 104.68 80.2503 103.983 92.1093 102.924C94.3901 102.722 95.0179 101.53 94.9719 99.5031C94.6378 83.5168 96.5615 67.8128 101.86 51.2679C81.0163 64.8585 66.2142 81.8641 55.4379 103.834ZM240.615 268.482C260.728 255.392 275.092 238.985 285.563 219.031C287.389 215.565 284.78 215.634 282.626 215.49C272.206 214.787 261.851 216.089 251.46 216.607C247.521 216.803 247.578 219.285 247.596 222.182C247.711 237.419 245.804 252.392 240.615 268.482ZM196.784 286.023C198.633 286.587 200.471 285.044 202.579 284.883C205.925 284.635 206.777 283.109 205.7 279.878C200.701 264.802 195.84 249.674 190.944 234.563C190.213 232.317 189.406 230.929 186.417 232.029C175.606 235.997 165.009 240.425 154.659 245.476C152.89 246.334 151.836 247.111 153.438 249.294C163.644 263.218 174.679 276.227 190.414 284.289C192.263 285.24 194.141 286.363 196.784 286.023ZM104.084 90.9802C104.084 93.5716 104.21 95.1265 104.061 96.6525C103.732 99.9465 104.884 101.231 108.317 100.494C119.036 98.2074 129.737 95.8924 140.26 92.7769C143.07 91.9419 144.113 90.8765 143.128 87.8877C138.071 72.6213 133.141 57.3088 128.153 42.0194C127.6 40.3148 126.932 38.5814 124.547 39.5834C119.992 41.4953 115.562 43.0617 113.08 48.2906C106.48 62.2037 104.971 77.021 104.084 90.9802ZM146.716 33.2718C143.905 33.8304 141.446 34.2278 139.039 34.8152C136.556 35.4141 135.761 36.825 136.637 39.4452C141.711 54.7174 146.687 70.0183 151.635 85.3251C152.343 87.5076 153.386 88.6882 155.822 87.7898C166.806 83.7357 177.651 79.3533 188.122 74.0898C189.787 73.249 190.535 72.3564 189.205 70.5597C178.457 56.088 167.128 42.2555 150.172 34.51C148.98 33.9629 147.701 33.6231 146.716 33.2718ZM238.409 229.904C238.409 226.172 238.323 224.053 238.426 221.945C238.553 219.337 237.499 218.588 234.953 219.089C223.837 221.26 212.831 223.857 201.939 226.927C199.578 227.589 198.282 228.666 199.175 231.367C204.278 246.829 209.352 262.297 214.386 277.776C215.244 280.42 216.505 280.477 219.063 279.665C224.575 277.915 228.14 274.672 230.449 269.317C236.123 256.187 237.666 242.337 238.409 229.904ZM186.227 220.206C186.095 219.838 185.882 219.308 185.697 218.761C180.26 202.17 174.771 185.59 169.449 168.959C168.666 166.512 168.067 165.544 165.21 166.518C151.214 171.286 137.167 175.904 123.061 180.35C120.234 181.243 119.853 182.55 120.735 184.986C127.26 202.89 135.151 220.149 144.977 236.503C146.255 238.634 147.494 238.819 149.665 237.73C160.637 232.219 171.984 227.554 183.549 223.437C185.046 222.913 186.578 222.492 186.227 220.206ZM237.534 204.842C235.691 185.59 231.86 167.761 226.873 150.151C225.997 147.076 224.431 147.116 221.781 148.009C208.171 152.604 194.521 157.09 180.813 161.398C177.766 162.36 177.017 163.373 178.106 166.564C183.612 182.734 188.992 198.951 194.077 215.248C195.201 218.841 196.537 219.198 199.831 218.225C210.498 215.069 221.234 212.138 232.281 210.532C236.157 209.973 238.916 208.545 237.534 204.842ZM105.005 114.649C106.837 133.992 110.696 151.931 115.718 169.65C116.49 172.386 117.826 172.628 120.412 171.752C134.385 167.03 148.404 162.429 162.469 158C165.279 157.119 165.302 156.048 164.485 153.589C158.973 137.027 153.576 120.425 148.271 103.793C147.35 100.897 146.163 100.39 143.237 101.3C132.277 104.715 121.115 107.467 109.797 109.356C105.593 110.053 104.141 111.631 105.005 114.649ZM194.941 81.0463C194.544 81.2306 194.02 81.4667 193.507 81.7143C182.092 87.1909 170.509 92.2356 158.523 96.3243C156.15 97.1362 155.943 98.5011 156.698 100.776C162.25 117.459 167.721 134.176 173.078 150.929C173.925 153.578 174.84 153.987 177.524 153.071C191.319 148.354 205.182 143.857 219.068 139.434C221.798 138.559 222.835 137.626 221.729 134.574C215.353 116.843 207.515 99.8083 197.746 83.6781C197.13 82.653 196.9 80.9542 194.941 81.0463ZM108.68 185.141C108.881 185.118 108.478 185.101 108.121 185.222C89.7076 191.274 71.3114 197.384 52.8691 203.362C50.2946 204.203 50.8302 205.418 51.5502 207.226C61.4279 232.138 77.5375 252.006 99.666 267.082C101.584 268.39 102.874 268.321 104.648 266.783C114.134 258.554 124.496 251.551 135.416 245.383C137.818 244.03 138.169 242.786 136.723 240.396C126.667 223.725 118.604 206.12 112.216 187.733C111.738 186.362 111.45 184.629 108.68 185.141ZM299.853 159.285C300.411 149.523 298.488 139.354 296.391 129.184C295.602 125.377 294.456 124.162 290.263 125.607C273.439 131.395 256.523 136.923 239.526 142.158C235.04 143.54 234.614 145.285 235.863 149.489C241.249 167.525 245.269 185.884 246.438 204.738C246.628 207.721 247.601 207.744 250.337 207.612C262.605 207.024 274.879 204.56 287.176 207.065C290.43 207.727 291.559 206.103 292.469 203.414C297.232 189.316 300.273 174.943 299.853 159.285ZM42.6746 160.575C42.139 170.22 43.9878 180.621 46.2226 190.998C46.9886 194.574 48.3882 195.467 52.0282 194.223C69.0652 188.424 86.1482 182.78 103.306 177.355C107.079 176.169 108.023 175 106.819 170.929C101.544 153.025 97.4197 134.839 96.1238 116.152C95.8934 112.794 94.6724 111.85 91.5104 112.172C80.0084 113.341 68.4201 114.194 56.9239 113.048C52.034 112.558 50.7093 114.101 49.3903 118.179C45.0418 131.654 42.3175 145.337 42.6746 160.575ZM291.507 113.675C291.374 113.382 291.133 112.858 290.919 112.328C280.99 87.4788 264.909 67.6054 242.781 52.5809C240.863 51.2794 239.607 51.3773 237.816 52.9091C228.313 61.0808 217.991 68.1237 207.083 74.2913C204.756 75.6101 204.266 76.733 205.769 79.2266C215.906 96.0421 224.027 113.808 230.369 132.38C231.175 134.729 232.218 135.15 234.521 134.39C252.722 128.366 270.962 122.469 289.169 116.463C290.251 116.111 292.089 115.996 291.507 113.675ZM168.487 314.46C181.665 314.166 192.983 313.348 204.226 311.505C206.939 311.068 208.667 310.509 207.382 307.175C206.558 305.044 206.656 302.798 209.542 302.205C213.752 301.341 213.435 299.13 212.445 295.651C211.276 291.528 208.943 292.501 206.322 293.21C185.864 298.755 165.256 299.032 144.476 295.185C67.942 281.019 17.4245 201.139 37.7502 126.057C49.9721 80.9139 77.814 49.2926 121.046 31.3311C123.724 30.2255 125.924 29.6726 124.438 25.7452C123.182 22.4512 122.359 20.0325 118.241 22.0596C116.052 23.1422 114.105 22.1114 113.731 20.0037C112.781 14.6078 110.195 16.5197 107.303 18.1091C99.0266 22.6642 90.9517 27.5649 83.4008 33.2373C31.046 72.5637 5.32935 123.523 18.6744 189.483C33.9085 264.75 91.0438 314.275 168.487 314.46ZM162.958 393.913C145.593 393.924 128.228 393.821 110.857 393.999C106.894 394.034 105.322 392.928 105.593 388.793C106.036 381.889 103.767 373.561 106.9 368.419C110.062 363.236 119.243 363.518 125.63 360.984C131.816 358.537 140.64 358.842 143.756 353.792C146.71 349 144.643 341.082 144.689 334.534C144.741 326.369 144.7 326.369 136.752 325.096C73.5116 314.926 18.3345 263.276 4.6382 200.557C-9.19062 137.24 8.00757 83.0561 54.8389 38.518C75.1934 19.1572 100.069 7.55907 127.018 0.233954C127.387 0.130297 127.802 -0.0539825 128.147 0.0151224C134.304 1.23597 132.525 7.22506 134.558 10.9107C135.738 13.0644 136.723 16.3124 133.239 17.1186C127.836 18.3682 129.426 21.213 130.382 24.7028C131.707 29.5287 134.811 26.7011 136.781 26.2174C177.219 16.3181 214.939 22.7506 249.139 46.2348C283.703 69.9723 303.095 103.217 308.083 145.009C315.225 204.836 280.091 265.314 222.029 288.061C218.366 289.495 216.546 290.664 218.458 294.995C219.604 297.609 220.266 298.917 223.284 297.673C226.389 296.389 228.099 297.656 229.246 300.926C233.531 313.095 233.634 313.031 221.557 317.523C209.6 321.975 197.262 324.894 184.597 326.259C181.608 326.582 180.6 327.515 180.652 330.44C180.796 337.184 180.94 343.95 180.606 350.688C180.427 354.172 182.046 355.41 184.862 356.314C195.097 359.573 205.268 363.058 215.555 366.156C218.953 367.175 220.048 368.857 219.886 372.312C219.621 377.898 219.633 383.507 219.95 389.087C220.163 392.928 218.815 394.022 215.054 393.982C197.689 393.809 180.323 393.907 162.958 393.913Z" fill="#284274"/>
</svg>
